<svg xmlns="http://www.w3.org/2000/svg" width="179" height="179" viewBox="0 0 179 179" fill="none">
<g clip-path="url(#clip0)">
<path d="M38.255 101.529C34.6258 102.715 30.8269 103.299 27.009 103.257C24.2023 103.257 22.4223 102.765 21.669 101.781C21.4479 101.528 21.3355 101.199 21.3561 100.863C21.3767 100.528 21.5287 100.215 21.779 99.991C22.1347 99.6239 22.5551 99.3256 23.019 99.111C24.1837 98.5414 25.4615 98.2407 26.758 98.231C28.014 98.231 28.925 98.2643 29.491 98.331C30.057 98.3977 30.675 98.4917 31.345 98.613C32.5183 98.8643 33.691 99.1643 34.863 99.513C36.035 99.8617 36.653 100.035 36.717 100.032C36.7941 100.036 36.8693 100.057 36.937 100.094C39.2564 98.8067 41.3868 97.2052 43.268 95.335C45.3507 93.3143 47.2193 91.381 48.874 89.535L54.309 83.158L59.587 76.804L62.413 73.694C64.8957 71.2509 67.5181 68.9541 70.267 66.815C67.4603 62.5003 62.5493 60.343 55.534 60.343C51.4012 60.402 47.3537 61.5277 43.784 63.611C40.3712 65.49 37.3769 68.0446 34.984 71.119C32.7007 74.0923 31.5593 76.815 31.56 79.287C31.534 79.9712 31.66 80.6527 31.9289 81.2825C32.1977 81.9122 32.6028 82.4745 33.115 82.929C34.1554 83.8538 35.5084 84.3486 36.9 84.313C38.3727 84.315 39.8344 84.0595 41.219 83.558C42.706 83.0106 44.1369 82.3214 45.492 81.5C47.0068 80.5893 48.4506 79.5654 49.811 78.437C51.1997 77.2988 52.4826 76.0373 53.644 74.668C56.136 71.714 57.4767 68.897 57.666 66.217C57.7287 65.735 57.8437 65.494 58.011 65.494C58.262 65.494 58.389 65.713 58.389 66.153C58.3126 69.3788 57.2487 72.5036 55.341 75.106C52.3644 79.6023 47.89 82.8975 42.713 84.406C41.2098 84.8941 39.6431 85.1586 38.063 85.191C36.8935 85.2212 35.7268 85.0622 34.608 84.72C33.7162 84.4224 32.886 83.965 32.158 83.37C31.4282 82.8548 30.8293 82.1757 30.4092 81.3873C29.9891 80.5989 29.7596 79.7231 29.739 78.83C29.7301 77.1482 30.0392 75.48 30.65 73.913C31.2842 72.3168 32.1527 70.8241 33.227 69.484C34.3971 68.0212 35.7422 66.7075 37.232 65.572C38.8376 64.3404 40.5693 63.2825 42.398 62.416C46.4504 60.5286 50.8707 59.5627 55.341 59.588C62.629 59.588 67.9907 61.7453 71.426 66.06C76.2 63.0433 80.4827 61.4517 84.274 61.285C84.588 61.285 84.745 61.37 84.745 61.536C84.7538 61.6004 84.7435 61.666 84.7154 61.7247C84.6873 61.7833 84.6427 61.8324 84.587 61.866C84.3013 61.9638 84.0065 62.0325 83.707 62.071C80.0217 62.5097 76.2837 64.3627 72.493 67.63C74.0288 70.1572 74.8337 73.0608 74.818 76.018C74.8605 78.7139 74.5109 81.4017 73.78 83.997C73.1145 86.2453 72.1531 88.3951 70.921 90.39C69.7133 92.3403 68.2504 94.1204 66.571 95.683C64.9074 97.2381 63.0553 98.5782 61.058 99.672C57.0385 101.933 52.5057 103.123 47.894 103.129C44.6209 103.061 41.3746 102.522 38.255 101.529V101.529ZM35.522 100.775C33.0348 100.071 30.4715 99.6697 27.888 99.581C26.4365 99.5238 24.9839 99.6614 23.569 99.99C22.6783 100.262 22.2333 100.576 22.234 100.933C22.234 101.812 24.0037 102.251 27.543 102.252C30.2769 102.322 32.9952 101.819 35.523 100.775H35.522ZM39.731 100.964C42.2222 101.754 44.8176 102.167 47.431 102.189C49.7065 102.215 51.9746 101.924 54.17 101.325C56.1897 100.749 58.1306 99.926 59.949 98.875C63.6998 96.6959 66.8558 93.626 69.138 89.937C71.5724 85.9916 72.8454 81.4399 72.811 76.804C72.8852 74.0249 72.3603 71.2623 71.272 68.704C68.8013 71.0257 66.5885 73.6073 64.672 76.404L58.923 84.477C52.7883 92.851 46.391 98.3467 39.731 100.964V100.964Z" fill="white"/>
<path d="M63.895 75.626C63.602 75.626 64.708 72.911 64.701 72.575C64.673 71.436 66.191 70.526 67.97 68.842C69.675 67.229 71.97 66.065 74.256 64.514C77.6214 62.1039 81.6468 60.7876 85.786 60.744C89.1359 60.8388 92.4471 61.4862 95.586 62.66L98.194 63.571C99.7632 64.1753 101.416 64.5358 103.094 64.64C104.063 64.6579 105.031 64.5788 105.984 64.404C106.797 64.2296 107.595 63.9935 108.372 63.698C109.972 63.1624 111.469 62.3601 112.801 61.325C113.344 60.7976 113.957 60.3483 114.624 59.99C114.77 59.99 114.844 60.054 114.844 60.179C114.844 60.3677 114.467 60.797 113.713 61.467C112.84 62.2273 111.911 62.9206 110.933 63.541C109.896 64.2199 108.797 64.7985 107.65 65.269C105.952 65.9826 104.136 66.3769 102.295 66.432C100.713 66.432 99.5297 66.39 98.745 66.306C97.9603 66.222 97.17 66.107 96.374 65.961C94.9558 65.6632 93.5556 65.2856 92.18 64.83C90.702 64.35 89.6757 64.031 89.101 63.873C88.5582 63.723 88.0078 63.6025 87.452 63.512C86.3368 63.3161 85.2062 63.2217 84.074 63.23C82.7941 63.2367 81.5192 63.3894 80.274 63.685C78.9615 63.989 77.6831 64.4245 76.458 64.985C72.835 66.661 69.27 68.266 67.802 71.136C67.402 71.936 66.265 72.872 66.265 73.336C66.262 74.068 64.335 75.626 63.895 75.626ZM118.22 58.248C118.651 57.7417 119.259 57.4196 119.92 57.348C120.433 57.348 120.689 57.4373 120.69 57.616C120.691 57.7008 120.667 57.7839 120.619 57.8541C120.571 57.9242 120.503 57.978 120.424 58.008C120.213 58.1103 120.008 58.2259 119.811 58.354L118.962 58.919C118.509 59.2559 118.088 59.6346 117.706 60.05C116.554 61.2853 115.716 62.2187 115.192 62.85C113.663 64.756 112.438 66.3373 111.517 67.594L104.512 77.237C99.6649 84.1085 94.1398 90.4758 88.02 96.243L82.52 101.112L84.939 99.698C86.6938 98.6423 88.3735 97.4665 89.966 96.179L94.426 92.473L99.201 88.073L112.772 74.942C117.987 70.146 121.485 67.0047 123.265 65.518C126.614 62.7747 128.74 61.0783 129.642 60.429C132.7 58.1677 134.4 57.0367 134.742 57.036C135.084 57.0353 135.257 57.182 135.261 57.476C135.261 57.6647 135.052 57.8647 134.634 58.076L133.471 58.705C131.515 59.7317 129.867 61.2603 128.696 63.134C127.377 65.1453 126.142 67.1453 124.99 69.134L121.377 75.323L117.513 81.668C116.193 83.7627 115.135 85.354 114.34 86.442L106.612 96.495L113.994 88.861L120.779 82.171L130.957 72.464C138.517 65.3007 144.727 60.8503 149.586 59.113C151.318 58.4893 153.145 58.1702 154.986 58.17C156.596 58.1131 158.192 58.4932 159.604 59.27C160.186 59.5885 160.668 60.063 160.996 60.6403C161.323 61.2176 161.483 61.8748 161.458 62.538C161.452 63.4152 161.232 64.2777 160.816 65.0499C160.399 65.822 159.8 66.4803 159.07 66.967C157.458 68.1386 155.501 68.737 153.51 68.667C152.419 68.6972 151.335 68.483 150.337 68.04C148.745 67.24 147.949 66.5067 147.949 65.84C147.949 65.1733 148.211 64.8383 148.734 64.835C148.84 64.8202 148.948 64.8311 149.049 64.8668C149.151 64.9024 149.242 64.9618 149.315 65.04C149.448 65.2941 149.534 65.5708 149.566 65.856C149.633 66.2544 149.839 66.6161 150.147 66.877C150.466 67.1528 150.827 67.3753 151.216 67.536C151.883 67.8555 152.611 68.0261 153.351 68.036C154.081 68.0296 154.807 67.913 155.502 67.69C156.241 67.4626 156.937 67.1124 157.56 66.654C158.239 66.2185 158.796 65.6187 159.181 64.9101C159.565 64.2015 159.765 63.4072 159.76 62.601C159.774 62.0292 159.621 61.4658 159.319 60.9802C159.017 60.4945 158.579 60.1079 158.06 59.868C157.051 59.3661 155.935 59.1179 154.809 59.145C153.697 59.1318 152.587 59.237 151.497 59.459C150.41 59.7105 149.351 60.0737 148.339 60.543C147.057 61.1338 145.816 61.8104 144.625 62.568C143.284 63.4067 141.797 64.4537 140.165 65.709C136.816 68.2441 133.627 70.9826 130.614 73.909L119.367 84.809L113.967 90.149L107.275 97.091C104.176 100.317 101.402 102.433 98.951 103.438C98.5458 103.634 98.1109 103.761 97.664 103.814C97.264 103.814 97.064 103.646 97.064 103.314C97.064 103.063 97.3463 102.843 97.911 102.654C98.397 102.497 98.874 102.313 99.34 102.104C99.7354 101.921 100.109 101.695 100.455 101.43C100.854 101.115 101.218 100.756 101.539 100.361C101.975 99.8249 102.379 99.264 102.749 98.681C103.189 98.0003 103.702 97.157 104.288 96.151C107.45 90.6237 109.576 86.9903 110.666 85.251C113.133 81.461 114.693 79.1153 115.346 78.214L127.032 63.638L123.232 66.528C121.862 67.5864 120.552 68.7191 119.306 69.921L104.354 84.53L96.562 91.754C90.908 96.864 86.0703 100.34 82.049 102.183L80.855 102.718C79.9185 103.251 78.8994 103.622 77.84 103.818C77.358 103.818 77.117 103.662 77.117 103.347C77.117 103.096 77.5883 102.834 78.531 102.562C79.6244 102.424 80.641 101.927 81.421 101.148C83.1617 99.4402 84.7198 97.5557 86.07 95.525L92.038 86.948L94.615 83.524C97.2537 80.1533 99.17 77.7867 100.364 76.424C103.213 73.262 105.413 70.906 106.964 69.356C113.85 62.5467 117.602 58.8437 118.22 58.247V58.248Z" fill="white"/>
<path d="M67.505 69.035C67.505 69.035 73.668 63.113 81.532 61.235C83.295 61.745 83.71 62.575 83.71 62.575L76.902 63.775L69.312 68.711L67.505 69.035Z" fill="white"/>
<path d="M69.931 70.004C72.9247 66.9524 76.6634 64.7356 80.777 63.573C87.204 61.952 80.209 62.668 80.209 62.668L69.931 67.679V70.004Z" fill="white"/>
<path d="M178.19 0.5H0.5V178.19H178.19V0.5Z" stroke="white" stroke-miterlimit="10"/>
<path d="M50.839 118.955H52.599C55.024 118.955 56.117 120.525 56.117 122.855C56.117 125.185 55.024 126.801 52.599 126.801H50.839V118.955ZM52.552 126.469C54.787 126.469 55.713 124.923 55.713 122.855C55.713 120.787 54.787 119.29 52.552 119.29H51.22V126.469H52.552Z" fill="white"/>
<path d="M58.606 119.264C58.606 119.157 58.6486 119.054 58.7244 118.978C58.8003 118.902 58.9032 118.86 59.0105 118.86C59.1177 118.86 59.2206 118.902 59.2965 118.978C59.3723 119.054 59.415 119.157 59.415 119.264C59.415 119.371 59.3723 119.474 59.2965 119.55C59.2206 119.626 59.1177 119.669 59.0105 119.669C58.9032 119.669 58.8003 119.626 58.7244 119.55C58.6486 119.474 58.606 119.371 58.606 119.264V119.264ZM58.82 121.118H59.177V126.8H58.82V121.118Z" fill="white"/>
<path d="M61.853 123.971C61.853 122.117 63.042 120.971 64.302 120.971C65.61 120.971 66.443 121.899 66.443 123.586C66.4465 123.714 66.4382 123.841 66.418 123.967H62.233C62.1928 124.29 62.2198 124.617 62.3126 124.928C62.4053 125.24 62.5616 125.529 62.7716 125.777C62.9817 126.025 63.2409 126.227 63.5329 126.369C63.8249 126.512 64.1433 126.593 64.468 126.606C65.0343 126.608 65.5858 126.425 66.038 126.084L66.203 126.393C65.688 126.754 65.0729 126.945 64.444 126.939C64.0739 126.929 63.7099 126.843 63.3749 126.685C63.0399 126.527 62.7412 126.302 62.4977 126.023C62.2543 125.744 62.0713 125.418 61.9603 125.065C61.8493 124.711 61.8128 124.339 61.853 123.971ZM66.086 123.638C66.086 122.07 65.372 121.308 64.302 121.308C63.7245 121.358 63.188 121.627 62.8032 122.061C62.4185 122.494 62.2147 123.059 62.234 123.638H66.086Z" fill="white"/>
<path d="M71.415 118.955H71.815L72.863 123.71L73.434 126.279H73.482C73.672 125.423 73.882 124.566 74.099 123.71L75.384 118.955H75.812L77.097 123.71C77.3096 124.567 77.5233 125.423 77.738 126.279H77.786C77.976 125.423 78.143 124.566 78.333 123.71L79.38 118.955H79.763L77.955 126.8H77.573L76.051 121.165C75.91 120.547 75.767 120.025 75.624 119.406H75.576C75.433 120.024 75.267 120.546 75.124 121.165L73.624 126.8H73.243L71.415 118.955Z" fill="white"/>
<path d="M81.513 125.41C81.513 124.137 82.677 123.544 85.245 123.259C85.27 122.333 85.031 121.308 83.845 121.308C83.1683 121.33 82.5173 121.572 81.991 121.998L81.801 121.713C82.3992 121.262 83.1207 121.005 83.869 120.976C85.201 120.976 85.604 121.976 85.604 123.117V126.8H85.296L85.247 126.04H85.223C84.6532 126.562 83.9254 126.879 83.155 126.94C82.9428 126.966 82.7275 126.945 82.5243 126.878C82.3211 126.812 82.1348 126.702 81.9784 126.557C81.822 126.411 81.6994 126.233 81.619 126.035C81.5386 125.837 81.5024 125.623 81.513 125.41V125.41ZM85.245 125.636V123.568C82.745 123.853 81.894 124.423 81.894 125.398C81.8821 125.566 81.9077 125.735 81.9691 125.893C82.0304 126.05 82.1259 126.192 82.2486 126.308C82.3713 126.424 82.5183 126.511 82.6788 126.563C82.8394 126.615 83.0095 126.631 83.177 126.61C83.9621 126.549 84.6976 126.202 85.245 125.636Z" fill="white"/>
<path d="M88.614 126.182V118.219H88.971V126.253C88.971 126.491 89.071 126.61 89.209 126.61C89.2809 126.611 89.3527 126.603 89.423 126.588L89.494 126.898C89.3937 126.928 89.2897 126.943 89.185 126.944C88.828 126.943 88.614 126.731 88.614 126.182Z" fill="white"/>
<path d="M91.742 123.971C91.6524 123.44 91.7325 122.894 91.9706 122.411C92.2088 121.928 92.5931 121.532 93.0689 121.279C93.5447 121.027 94.088 120.93 94.6216 121.004C95.1553 121.077 95.6522 121.317 96.042 121.689L96.018 120.619V118.219H96.375V126.798H96.066L96.018 126.038H95.994C95.7525 126.306 95.4602 126.524 95.1341 126.678C94.8079 126.833 94.4544 126.921 94.094 126.938C92.67 126.943 91.742 125.898 91.742 123.971ZM96.022 125.612V122.098C95.5614 121.616 94.9296 121.334 94.263 121.313C93.6266 121.384 93.044 121.704 92.6428 122.203C92.2416 122.702 92.0543 123.339 92.122 123.976C92.122 125.546 92.836 126.615 94.122 126.615C94.4891 126.584 94.8462 126.479 95.172 126.306C95.4977 126.134 95.7854 125.898 96.018 125.612H96.022Z" fill="white"/>
<path d="M99.556 118.219H99.913V122.046C100.156 121.741 100.458 121.488 100.802 121.304C101.146 121.12 101.524 121.008 101.913 120.976C103.079 120.976 103.626 121.666 103.626 123.139V126.798H103.269V123.188C103.269 121.927 102.869 121.309 101.891 121.309C101.176 121.309 100.654 121.69 99.917 122.451V126.798H99.56L99.556 118.219Z" fill="white"/>
<path d="M106.562 124.78V121.116H106.919V124.73C106.919 125.989 107.319 126.608 108.297 126.608C109.011 126.608 109.534 126.229 110.248 125.373V121.116H110.605V126.798H110.296L110.248 125.824H110.224C110.004 126.145 109.714 126.412 109.377 126.605C109.04 126.798 108.663 126.913 108.275 126.941C107.109 126.944 106.562 126.254 106.562 124.78ZM107.228 119.264C107.228 119.189 107.251 119.116 107.292 119.053C107.334 118.991 107.394 118.942 107.463 118.914C107.532 118.885 107.609 118.878 107.682 118.892C107.756 118.907 107.824 118.943 107.877 118.996C107.93 119.049 107.966 119.117 107.981 119.191C107.995 119.264 107.988 119.341 107.959 119.41C107.931 119.479 107.882 119.539 107.82 119.581C107.757 119.622 107.684 119.645 107.609 119.645C107.559 119.646 107.509 119.636 107.463 119.617C107.416 119.599 107.374 119.571 107.338 119.535C107.303 119.5 107.275 119.458 107.256 119.411C107.237 119.365 107.227 119.315 107.228 119.265V119.264ZM109.274 119.264C109.274 119.189 109.297 119.115 109.339 119.053C109.381 118.991 109.44 118.942 109.51 118.914C109.579 118.885 109.655 118.878 109.729 118.893C109.803 118.907 109.87 118.944 109.923 118.997C109.976 119.05 110.012 119.118 110.027 119.192C110.041 119.266 110.034 119.342 110.005 119.411C109.976 119.481 109.927 119.54 109.864 119.582C109.802 119.623 109.728 119.645 109.653 119.645C109.603 119.646 109.553 119.637 109.506 119.618C109.459 119.6 109.417 119.572 109.381 119.536C109.345 119.501 109.317 119.459 109.298 119.412C109.279 119.365 109.269 119.315 109.27 119.265L109.274 119.264Z" fill="white"/>
<path d="M113.9 125.302V121.452H113V121.165L113.9 121.117L113.946 119.453H114.255V121.117H115.944V121.452H114.255V125.352C114.255 126.089 114.422 126.611 115.255 126.611C115.51 126.593 115.76 126.529 115.992 126.422L116.111 126.731C115.829 126.842 115.533 126.914 115.231 126.944C114.184 126.943 113.9 126.278 113.9 125.302Z" fill="white"/>
<path d="M118.146 125.302V121.452H117.246V121.165L118.146 121.117L118.194 119.453H118.503V121.117H120.19V121.452H118.503V125.352C118.503 126.089 118.67 126.611 119.503 126.611C119.758 126.593 120.008 126.529 120.24 126.422L120.359 126.731C120.077 126.842 119.781 126.914 119.479 126.944C118.431 126.943 118.146 126.278 118.146 125.302Z" fill="white"/>
<path d="M121.889 123.971C121.889 122.117 123.078 120.971 124.338 120.971C125.645 120.971 126.477 121.899 126.477 123.586C126.48 123.713 126.472 123.841 126.453 123.967H122.269C122.229 124.29 122.256 124.617 122.349 124.928C122.441 125.24 122.598 125.529 122.808 125.777C123.018 126.025 123.277 126.227 123.569 126.369C123.861 126.512 124.179 126.593 124.504 126.606C125.07 126.608 125.62 126.425 126.072 126.084L126.24 126.393C125.724 126.753 125.109 126.944 124.48 126.939C124.11 126.929 123.746 126.843 123.411 126.685C123.076 126.528 122.777 126.302 122.533 126.023C122.29 125.744 122.107 125.418 121.996 125.065C121.885 124.712 121.849 124.339 121.889 123.971V123.971ZM126.122 123.638C126.122 122.07 125.407 121.308 124.338 121.308C123.76 121.357 123.224 121.627 122.839 122.06C122.454 122.494 122.25 123.059 122.27 123.638H126.122Z" fill="white"/>
<path d="M131.167 123.444H142.581" stroke="white" stroke-width="0.25" stroke-miterlimit="10"/>
<path d="M34.53 123.444H45.944" stroke="white" stroke-width="0.25" stroke-miterlimit="10"/>
</g>
<defs>
<clipPath id="clip0">
<rect width="178.69" height="178.69" fill="white"/>
</clipPath>
</defs>
</svg>